<?xml version="1.0" encoding="UTF-8"?>
<svg xmlns="http://www.w3.org/2000/svg" version="1.1" viewBox="0 0 24 24">
  <defs>
    <style>
      .cls-1 {
        fill: #003b83;
      }
    </style>
  </defs>
  <!-- Generator: Adobe Illustrator 28.6.0, SVG Export Plug-In . SVG Version: 1.2.0 Build 709)  -->
  <g>
    <g id="Layer_1">
      <path class="cls-1" d="M6,19h3.7v-5.1c0-.2,0-.4.2-.6.2-.2.3-.2.6-.2h3c.2,0,.4,0,.6.2.2.2.2.3.2.6v5.1h3.7v-8.7c0-.1,0-.2,0-.3s-.1-.2-.2-.2l-5.4-4.1c-.1,0-.2-.1-.4-.1-.1,0-.3,0-.4.1l-5.4,4.1c0,0-.1.1-.2.2s0,.2,0,.3v8.7ZM5,19v-8.7c0-.3,0-.5.2-.7.1-.2.3-.4.5-.6l5.4-4.1c.3-.2.6-.3,1-.3.4,0,.7.1,1,.3l5.4,4.1c.2.1.4.3.5.6.1.2.2.5.2.7v8.7c0,.3,0,.5-.3.7s-.4.3-.7.3h-3.9c-.2,0-.4,0-.6-.2-.2-.2-.2-.3-.2-.6v-5.1h-2.6v5.1c0,.2,0,.4-.2.6-.2.2-.3.2-.6.2h-3.9c-.3,0-.5,0-.7-.3-.2-.2-.3-.4-.3-.7Z"/>
    </g>
  </g>
</svg>